<mxfile host="app.diagrams.net" modified="2024-04-04T14:57:02.322Z" agent="Mozilla/5.0 (Windows NT 10.0; Win64; x64) AppleWebKit/537.36 (KHTML, like Gecko) Chrome/123.0.0.0 Safari/537.36 Edg/123.0.0.0" etag="HBpRyVJJiDMCecJinLN0" version="24.2.1" type="device">
  <diagram name="StrÃ¡nka-1" id="S_6jSqt8zfVVwWlLF_jy">
    <mxGraphModel dx="1426" dy="785" grid="1" gridSize="10" guides="1" tooltips="1" connect="1" arrows="1" fold="1" page="1" pageScale="1" pageWidth="500" pageHeight="200" math="0" shadow="0">
      <root>
        <mxCell id="0" />
        <mxCell id="1" parent="0" />
        <mxCell id="4G_5i_WC7-_NJLePA0qV-16" style="edgeStyle=orthogonalEdgeStyle;rounded=0;orthogonalLoop=1;jettySize=auto;html=1;entryX=0.25;entryY=1;entryDx=0;entryDy=0;exitX=0.75;exitY=1;exitDx=0;exitDy=0;curved=1;" edge="1" parent="1" source="4G_5i_WC7-_NJLePA0qV-1" target="4G_5i_WC7-_NJLePA0qV-2">
          <mxGeometry relative="1" as="geometry" />
        </mxCell>
        <mxCell id="4G_5i_WC7-_NJLePA0qV-1" value="on_init" style="rounded=1;whiteSpace=wrap;html=1;" vertex="1" parent="1">
          <mxGeometry x="5" width="120" height="60" as="geometry" />
        </mxCell>
        <mxCell id="4G_5i_WC7-_NJLePA0qV-17" style="edgeStyle=orthogonalEdgeStyle;rounded=0;orthogonalLoop=1;jettySize=auto;html=1;entryX=0.25;entryY=1;entryDx=0;entryDy=0;exitX=0.75;exitY=1;exitDx=0;exitDy=0;curved=1;" edge="1" parent="1" source="4G_5i_WC7-_NJLePA0qV-2" target="4G_5i_WC7-_NJLePA0qV-4">
          <mxGeometry relative="1" as="geometry" />
        </mxCell>
        <mxCell id="4G_5i_WC7-_NJLePA0qV-2" value="on_configure" style="rounded=1;whiteSpace=wrap;html=1;" vertex="1" parent="1">
          <mxGeometry x="145" width="120" height="60" as="geometry" />
        </mxCell>
        <mxCell id="4G_5i_WC7-_NJLePA0qV-3" value="on_clenup" style="rounded=1;whiteSpace=wrap;html=1;" vertex="1" parent="1">
          <mxGeometry x="145" y="140" width="120" height="60" as="geometry" />
        </mxCell>
        <mxCell id="4G_5i_WC7-_NJLePA0qV-14" style="edgeStyle=orthogonalEdgeStyle;rounded=0;orthogonalLoop=1;jettySize=auto;html=1;entryX=0.5;entryY=0;entryDx=0;entryDy=0;exitX=1;exitY=0.5;exitDx=0;exitDy=0;curved=1;" edge="1" parent="1" source="4G_5i_WC7-_NJLePA0qV-4" target="4G_5i_WC7-_NJLePA0qV-7">
          <mxGeometry relative="1" as="geometry" />
        </mxCell>
        <mxCell id="4G_5i_WC7-_NJLePA0qV-4" value="on_activate" style="rounded=1;whiteSpace=wrap;html=1;" vertex="1" parent="1">
          <mxGeometry x="285" width="120" height="60" as="geometry" />
        </mxCell>
        <mxCell id="4G_5i_WC7-_NJLePA0qV-18" style="edgeStyle=orthogonalEdgeStyle;rounded=0;orthogonalLoop=1;jettySize=auto;html=1;entryX=0.75;entryY=0;entryDx=0;entryDy=0;exitX=0.25;exitY=0;exitDx=0;exitDy=0;curved=1;" edge="1" parent="1" source="4G_5i_WC7-_NJLePA0qV-5" target="4G_5i_WC7-_NJLePA0qV-3">
          <mxGeometry relative="1" as="geometry" />
        </mxCell>
        <mxCell id="4G_5i_WC7-_NJLePA0qV-5" value="on_deactivate" style="rounded=1;whiteSpace=wrap;html=1;" vertex="1" parent="1">
          <mxGeometry x="285" y="140" width="120" height="60" as="geometry" />
        </mxCell>
        <mxCell id="4G_5i_WC7-_NJLePA0qV-6" value="on_shutdown" style="rounded=1;whiteSpace=wrap;html=1;" vertex="1" parent="1">
          <mxGeometry x="5" y="140" width="120" height="60" as="geometry" />
        </mxCell>
        <mxCell id="4G_5i_WC7-_NJLePA0qV-15" style="edgeStyle=orthogonalEdgeStyle;rounded=0;orthogonalLoop=1;jettySize=auto;html=1;entryX=1;entryY=0.5;entryDx=0;entryDy=0;curved=1;" edge="1" parent="1" source="4G_5i_WC7-_NJLePA0qV-7" target="4G_5i_WC7-_NJLePA0qV-5">
          <mxGeometry relative="1" as="geometry" />
        </mxCell>
        <mxCell id="4G_5i_WC7-_NJLePA0qV-7" value="read / write" style="rounded=1;whiteSpace=wrap;html=1;" vertex="1" parent="1">
          <mxGeometry x="375" y="70" width="120" height="60" as="geometry" />
        </mxCell>
        <mxCell id="4G_5i_WC7-_NJLePA0qV-19" style="edgeStyle=orthogonalEdgeStyle;rounded=0;orthogonalLoop=1;jettySize=auto;html=1;entryX=0.808;entryY=0.017;entryDx=0;entryDy=0;entryPerimeter=0;exitX=0.25;exitY=0;exitDx=0;exitDy=0;curved=1;" edge="1" parent="1" source="4G_5i_WC7-_NJLePA0qV-3" target="4G_5i_WC7-_NJLePA0qV-6">
          <mxGeometry relative="1" as="geometry" />
        </mxCell>
      </root>
    </mxGraphModel>
  </diagram>
</mxfile>
